<?xml version="1.0" encoding="UTF-8" standalone="no"?>
<!-- Created with Inkscape (http://www.inkscape.org/) -->

<svg
   width="210mm"
   height="297mm"
   viewBox="0 0 210 297"
   version="1.1"
   id="svg5"
   xml:space="preserve"
   inkscape:version="1.2 (56b05e47e7, 2022-06-09, custom)"
   sodipodi:docname="uebersichtsplan.svg"
   xmlns:inkscape="http://www.inkscape.org/namespaces/inkscape"
   xmlns:sodipodi="http://sodipodi.sourceforge.net/DTD/sodipodi-0.dtd"
   xmlns="http://www.w3.org/2000/svg"
   xmlns:svg="http://www.w3.org/2000/svg"><sodipodi:namedview
     id="namedview7"
     pagecolor="#ffffff"
     bordercolor="#000000"
     borderopacity="0.25"
     inkscape:showpageshadow="2"
     inkscape:pageopacity="0.0"
     inkscape:pagecheckerboard="0"
     inkscape:deskcolor="#d1d1d1"
     inkscape:document-units="mm"
     showgrid="false"
     inkscape:zoom="1.5767512"
     inkscape:cx="226.09781"
     inkscape:cy="398.28731"
     inkscape:window-width="2560"
     inkscape:window-height="1367"
     inkscape:window-x="0"
     inkscape:window-y="0"
     inkscape:window-maximized="1"
     inkscape:current-layer="layer1" /><defs
     id="defs2" /><g
     inkscape:label="Layer 1"
     inkscape:groupmode="layer"
     id="layer1"><path
       id="rect24753"
       style="opacity:1;fill:#dbdbdb;stroke-width:0.765"
       d="m 140.17579,67.31416 20.80684,-12.222159 13.09615,15.468702 -14.25671,19.145202 z"
       sodipodi:nodetypes="ccccc" /><path
       id="rect24753-9"
       style="fill:#8ed792;fill-opacity:1;stroke-width:0.765"
       d="M 103.22091,104.63016 113.481,115.19123 112.03332,128.17632 93.840598,153.7519 56.927299,136.72744 76.051477,99.173579"
       sodipodi:nodetypes="cccccc" /><path
       id="rect231"
       style="fill:#b0caff;fill-opacity:1;stroke-width:0.264583"
       d="m 24.932909,38.947124 h 25.87063 l 10.271106,0.117263 c 0,0 15.35895,12.671873 16.715804,19.500142 1.356853,6.828268 -3.383913,14.299904 -5.537697,15.202322 -2.153783,0.902418 -31.047064,-2.667519 -39.050339,-3.05175 -8.003275,-0.384231 -8.316497,1.240817 -8.316497,1.240817 l 0.04699,-13.761113 z"
       sodipodi:nodetypes="ccczzzccc" /><path
       id="rect1131"
       style="fill:#b0caff;stroke-width:0.264583"
       d="m 85.768969,112.68337 c 4.713158,-4.7972 14.040758,-8.78935 20.285291,-2.54482 6.24453,6.24453 6.98976,12.02677 0.74523,18.2713 -6.24453,6.24453 -11.513129,5.46035 -17.757661,-0.78418 -6.244533,-6.24453 -7.986018,-10.1451 -3.27286,-14.9423 z"
       sodipodi:nodetypes="zzzzz" /><path
       id="rect1134"
       style="fill:#b0caff;stroke-width:0.280187"
       d="m 86.925594,137.6838 2.956348,-3.34099 6.975096,5.43863 -2.869204,3.24256 z"
       sodipodi:nodetypes="ccccc" /><path
       style="fill:#b0caff;fill-opacity:1;stroke-width:0.76500021;stroke:#ebb467;stroke-opacity:1;stroke-dasharray:none"
       d="M 43.344623,160.92566 105.4038,39.054267"
       id="path2652" /><rect
       style="opacity:1;fill:#f5de42;fill-opacity:1;stroke:none;stroke-width:0.91039;stroke-dasharray:none;stroke-opacity:1"
       id="rect5763"
       width="3.2892196"
       height="5.8283448"
       x="-10.28475"
       y="133.58711"
       transform="rotate(-58.918658)" /><path
       style="opacity:1;fill:#ffeb3b;fill-opacity:1;stroke:#a9a9a9;stroke-width:2.62998;stroke-dasharray:none;stroke-opacity:1"
       d="M 186.07446,57.121811 109.69619,162.32032"
       id="path10225" /><rect
       style="fill:#75757e;fill-opacity:1;stroke:none;stroke-width:0.0994701;stroke-dasharray:none;stroke-opacity:1"
       id="rect7801"
       width="5.1557546"
       height="13.780114"
       x="160.68791"
       y="77.127884"
       rx="1.0521148"
       ry="1.0521148" /><circle
       style="fill:#f44336;fill-opacity:1;stroke:none;stroke-width:0.0994701;stroke-dasharray:none;stroke-opacity:1"
       id="path8269"
       cx="163.26579"
       cy="79.603615"
       r="1.7142956" /><circle
       style="fill:#ffeb3b;fill-opacity:1;stroke:none;stroke-width:0.0994701;stroke-dasharray:none;stroke-opacity:1"
       id="circle9256"
       cx="163.26579"
       cy="84.017937"
       r="1.7142956" /><circle
       style="fill:#4caf50;fill-opacity:1;stroke:none;stroke-width:0.0994701;stroke-dasharray:none;stroke-opacity:1"
       id="circle9258"
       cx="163.26579"
       cy="88.432266"
       r="1.7142956" /><rect
       style="fill:#75757e;fill-opacity:1;stroke:none;stroke-width:0.0994701;stroke-dasharray:none;stroke-opacity:1"
       id="rect7801-8"
       width="5.1557546"
       height="13.780114"
       x="119.15693"
       y="135.589"
       rx="1.0521148"
       ry="1.0521148" /><circle
       style="fill:#f44336;fill-opacity:1;stroke:none;stroke-width:0.0994701;stroke-dasharray:none;stroke-opacity:1"
       id="path8269-6"
       cx="121.73481"
       cy="138.06474"
       r="1.7142956" /><circle
       style="fill:#ffeb3b;fill-opacity:1;stroke:none;stroke-width:0.0994701;stroke-dasharray:none;stroke-opacity:1"
       id="circle9256-1"
       cx="121.73481"
       cy="142.47906"
       r="1.7142956" /><circle
       style="fill:#4caf50;fill-opacity:1;stroke:none;stroke-width:0.0994701;stroke-dasharray:none;stroke-opacity:1"
       id="circle9258-2"
       cx="121.73481"
       cy="146.8934"
       r="1.7142956" /><path
       style="opacity:1;fill:none;fill-opacity:1;stroke:#a9a9a9;stroke-width:1.66499971;stroke-dasharray:none;stroke-opacity:1"
       d="M 185.35175,121.31981 138.25774,67.46042 86.107872,38.061309"
       id="path14793" /><rect
       style="fill:#27428e;fill-opacity:1;stroke:#ffffff;stroke-width:0.389679;stroke-dasharray:none;stroke-opacity:1"
       id="rect15636-2"
       width="7.5636921"
       height="7.5636921"
       x="102.98976"
       y="144.96289"
       rx="1.8937572"
       ry="1.8937572" /><text
       xml:space="preserve"
       style="font-size:7.70134px;fill:#ffffff;fill-opacity:1;stroke:none;stroke-width:4.03866;stroke-dasharray:none;stroke-opacity:1"
       x="112.79286"
       y="140.25679"
       id="text17144-4"
       transform="scale(0.92406385,1.0821763)"><tspan
         sodipodi:role="line"
         id="tspan17142-7"
         style="font-style:normal;font-variant:normal;font-weight:bold;font-stretch:normal;font-family:sans-serif;-inkscape-font-specification:'sans-serif Bold';fill:#ffffff;fill-opacity:1;stroke:none;stroke-width:4.03866"
         x="112.79286"
         y="140.25679">P</tspan></text><path
       style="opacity:1;fill:#ffffff;fill-opacity:1;stroke:none;stroke-width:1.665;stroke-dasharray:none;stroke-opacity:1"
       d="m 108.53825,38.811596 -1.0661,8.509805"
       id="path17938" /><path
       style="opacity:1;fill:none;fill-opacity:1;stroke:#a9a9a9;stroke-width:1.265;stroke-dasharray:none;stroke-opacity:1"
       d="m 108.50864,38.883296 -1.12578,8.442394 -13.868792,24.922154 -2.152275,1.78417 -4.647866,9.18882 -2.570607,1.36452 -3.074279,0.309729 -7.386174,7.604114 -10.470025,17.345003 -1.959766,1.62432 -2.510663,-0.0513 -34.11908,-14.01514"
       id="path18003" /><path
       style="opacity:1;fill:none;fill-opacity:1;stroke:#a9a9a9;stroke-width:1.265;stroke-dasharray:none;stroke-opacity:1"
       d="m 118.63358,148.84948 -10.78757,-7.60577"
       id="path18669" /><path
       style="opacity:1;fill:none;fill-opacity:1;stroke:#ebb467;stroke-width:0.76500011;stroke-dasharray:none;stroke-opacity:1"
       d="m 91.11136,66.894344 7.637145,1.282081 2.067705,0.471506 15.4169,8.383796 1.06613,1.052508 0.37183,1.232884 -1.83244,3.586715 -1.66163,3.072903 -0.225,9.315331 -1.01136,4.701828 -1.67772,5.074854 0.5845,2.23264 2.27941,2.50378 1.04813,5.20387 0.0284,5.21136 -0.26424,4.68542 -0.92249,5.85282 -6.1767,10.1692"
       id="path19292" /><path
       style="opacity:1;fill:none;fill-opacity:1;stroke:#ebb467;stroke-width:0.765;stroke-dasharray:none;stroke-opacity:1"
       d="m 67.970584,113.28914 3.33579,1.58124"
       id="path20674" /><text
       xml:space="preserve"
       style="font-style:normal;font-variant:normal;font-weight:bold;font-stretch:normal;font-size:3.175px;font-family:sans-serif;-inkscape-font-specification:'sans-serif Bold';opacity:1;fill:#000000;fill-opacity:1;stroke:none;stroke-width:0.765;stroke-dasharray:none;stroke-opacity:1"
       x="72.129509"
       y="105.57526"
       id="text21456"><tspan
         sodipodi:role="line"
         style="fill:#000000;fill-opacity:1;stroke:none;stroke-width:0.765;stroke-opacity:1"
         x="72.129509"
         y="105.57526"
         id="tspan24015" /><tspan
         sodipodi:role="line"
         style="fill:#000000;fill-opacity:1;stroke:none;stroke-width:0.765;stroke-opacity:1"
         x="72.129509"
         y="109.54401"
         id="tspan24021">Fußgänger-</tspan><tspan
         sodipodi:role="line"
         style="fill:#000000;fill-opacity:1;stroke:none;stroke-width:0.765;stroke-opacity:1"
         x="72.129509"
         y="113.51276"
         id="tspan24025">zugang</tspan><tspan
         sodipodi:role="line"
         style="fill:#000000;fill-opacity:1;stroke:none;stroke-width:0.765;stroke-opacity:1"
         x="72.129509"
         y="117.48151"
         id="tspan22396">Freibad</tspan></text><text
       xml:space="preserve"
       style="font-style:normal;font-variant:normal;font-weight:bold;font-stretch:normal;font-size:3.175px;font-family:sans-serif;-inkscape-font-specification:'sans-serif Bold';fill:#000000;fill-opacity:1;stroke:none;stroke-width:0.765;stroke-dasharray:none;stroke-opacity:1"
       x="63.024189"
       y="132.22688"
       id="text21456-7"><tspan
         sodipodi:role="line"
         style="fill:#000000;fill-opacity:1;stroke:none;stroke-width:0.765;stroke-opacity:1"
         x="63.024189"
         y="132.22688"
         id="tspan22396-18">Zeltplätze</tspan></text><text
       xml:space="preserve"
       style="font-style:normal;font-variant:normal;font-weight:bold;font-stretch:normal;font-size:3.175px;font-family:sans-serif;-inkscape-font-specification:'sans-serif Bold';fill:#000000;fill-opacity:1;stroke:none;stroke-width:0.765;stroke-dasharray:none;stroke-opacity:1;text-anchor:end;text-align:end"
       x="87.419083"
       y="63.984867"
       id="text21456-3"><tspan
         sodipodi:role="line"
         style="fill:#000000;fill-opacity:1;stroke:none;stroke-width:0.765;stroke-opacity:1;text-anchor:end;text-align:end"
         x="57.134106"
         y="63.984867"
         id="tspan22396-2">Offlumer See</tspan><tspan
         sodipodi:role="line"
         style="fill:#000000;fill-opacity:1;stroke:none;stroke-width:0.765;stroke-opacity:1;text-anchor:end;text-align:end"
         x="57.134106"
         y="67.953613"
         id="tspan24013">Wettkampfstätte</tspan></text><text
       xml:space="preserve"
       style="font-style:normal;font-variant:normal;font-weight:bold;font-stretch:normal;font-size:3.175px;font-family:sans-serif;-inkscape-font-specification:'sans-serif Bold';fill:#000000;fill-opacity:1;stroke:none;stroke-width:0.765;stroke-dasharray:none;stroke-opacity:1"
       x="95.310966"
       y="81.993973"
       id="text21456-47"><tspan
         sodipodi:role="line"
         style="fill:#000000;fill-opacity:1;stroke:none;stroke-width:0.765;stroke-opacity:1"
         x="95.310966"
         y="81.993973"
         id="tspan22396-1">Beachflags</tspan></text><text
       xml:space="preserve"
       style="font-style:normal;font-variant:normal;font-weight:bold;font-stretch:normal;font-size:3.175px;font-family:sans-serif;-inkscape-font-specification:'sans-serif Bold';text-align:end;text-anchor:end;fill:#000000;fill-opacity:1;stroke:none;stroke-width:0.765;stroke-dasharray:none;stroke-opacity:1"
       x="107.30535"
       y="136.33488"
       id="text21456-4"><tspan
         sodipodi:role="line"
         id="tspan21454-5"
         style="text-align:end;text-anchor:end;fill:#000000;fill-opacity:1;stroke:none;stroke-width:0.765;stroke-opacity:1"
         x="107.30535"
         y="136.33488">Zugang</tspan><tspan
         sodipodi:role="line"
         style="text-align:end;text-anchor:end;fill:#000000;fill-opacity:1;stroke:none;stroke-width:0.765;stroke-opacity:1"
         x="107.30535"
         y="140.30363"
         id="tspan22396-6">Freibad</tspan><tspan
         sodipodi:role="line"
         style="text-align:end;text-anchor:end;fill:#000000;fill-opacity:1;stroke:none;stroke-width:0.765;stroke-opacity:1"
         x="107.30535"
         y="144.27238"
         id="tspan29808">&amp; Duschen</tspan></text><text
       xml:space="preserve"
       style="font-style:normal;font-variant:normal;font-weight:bold;font-stretch:normal;font-size:3.175px;font-family:sans-serif;-inkscape-font-specification:'sans-serif Bold';fill:#6b6b6b;fill-opacity:1;stroke:none;stroke-width:0.765;stroke-dasharray:none;stroke-opacity:1"
       x="145.96565"
       y="67.837906"
       id="text21456-4-4"><tspan
         sodipodi:role="line"
         style="fill:#6b6b6b;fill-opacity:1;stroke:none;stroke-width:0.765;stroke-opacity:1"
         x="145.96565"
         y="67.837906"
         id="tspan22396-6-7">Molkerei</tspan><tspan
         sodipodi:role="line"
         style="fill:#6b6b6b;fill-opacity:1;stroke:none;stroke-width:0.765;stroke-opacity:1"
         x="145.96565"
         y="71.806656"
         id="tspan27526">Naarmann</tspan></text><path
       style="opacity:1;fill:none;fill-opacity:0.95294118;stroke:#a9a9a9;stroke-width:1.16500005;stroke-dasharray:none;stroke-opacity:1"
       d="m 98.798556,62.41484 19.741534,9.68734"
       id="path29994" /><rect
       style="fill:#27428e;fill-opacity:1;stroke:#ffffff;stroke-width:0.389679;stroke-dasharray:none;stroke-opacity:1"
       id="rect15636"
       width="7.5636921"
       height="7.5636921"
       x="104.40157"
       y="60.319389"
       rx="1.8937572"
       ry="1.8937572" /><text
       xml:space="preserve"
       style="font-size:7.70134px;fill:#ffffff;fill-opacity:1;stroke:none;stroke-width:4.03866;stroke-dasharray:none;stroke-opacity:1"
       x="114.32069"
       y="62.040791"
       id="text17144"
       transform="scale(0.92406385,1.0821763)"><tspan
         sodipodi:role="line"
         id="tspan17142"
         style="font-style:normal;font-variant:normal;font-weight:bold;font-stretch:normal;font-family:sans-serif;-inkscape-font-specification:'sans-serif Bold';fill:#ffffff;fill-opacity:1;stroke:none;stroke-width:4.03866"
         x="114.32069"
         y="62.040791">P</tspan></text><path
       d="m 51.469223,145.38926 c 0.772562,0.77253 1.253631,1.60551 1.536455,2.66098 0.282929,1.05652 0.282929,2.01855 0,3.07494 -0.282745,1.05559 -0.764209,1.88897 -1.537377,2.66203 -0.772535,0.77264 -1.605593,1.25371 -2.661584,1.53706 -1.055913,0.2823 -2.018447,0.28272 -3.074333,-5.3e-4 -1.055596,-0.28293 -1.888549,-0.76389 -2.661189,-1.53653 -0.773063,-0.77306 -1.254527,-1.60644 -1.537773,-2.66243 -0.282955,-1.0556 -0.282955,-2.01855 0,-3.07402 0.283246,-1.05588 0.76421,-1.88897 1.536956,-2.6615 0.772957,-0.77306 1.60641,-1.25463 2.661901,-1.53756 1.055991,-0.28325 2.018525,-0.28285 3.074543,-4.2e-4 1.055886,0.28335 1.88926,0.76481 2.662401,1.53798 z m -0.007,0.007 c -0.772035,-0.77203 -1.603459,-1.25236 -2.658001,-1.53532 -1.054569,-0.28211 -2.014942,-0.28251 -3.069379,4.2e-4 -1.054147,0.28254 -1.885571,0.76287 -2.657606,1.5349 -0.771508,0.77161 -1.25155,1.60262 -1.534479,2.65708 -0.282428,1.05404 -0.282428,2.01481 1.06e-4,3.06885 0.282929,1.05457 0.763392,1.88607 1.535427,2.65811 0.771508,0.77151 1.602615,1.25144 2.656552,1.53398 1.054542,0.28293 2.01481,0.28243 3.069379,5e-4 1.054542,-0.28293 1.885545,-0.76287 2.657184,-1.53438 0.772009,-0.77203 1.252367,-1.60353 1.534795,-2.65768 0.282508,-1.05496 0.282508,-2.01484 0,-3.0698 -0.282323,-1.05404 -0.76247,-1.88515 -1.533978,-2.65666 z"
       style="fill:#000000;fill-opacity:1;fill-rule:evenodd;stroke:none;stroke-width:0.0263484"
       id="path5559"
       inkscape:connector-curvature="0" /><path
       d="m 43.077255,145.39616 c 0.772035,-0.77203 1.603459,-1.25236 2.657606,-1.5349 1.054437,-0.28293 2.01481,-0.28253 3.069379,-4.2e-4 1.054542,0.28296 1.885966,0.76329 2.658001,1.53532 0.771613,0.77151 1.251655,1.60262 1.533978,2.65666 0.282508,1.05496 0.282508,2.01494 7.9e-5,3.0699 -0.282507,1.05405 -0.762865,1.88555 -1.534874,2.65758 -0.771639,0.77151 -1.602642,1.25145 -2.657079,1.53438 -1.054569,0.282 -2.014942,0.28243 -3.069484,-5e-4 -1.053937,-0.28254 -1.884939,-0.76237 -2.656552,-1.53398 -0.772035,-0.77204 -1.252393,-1.60354 -1.535427,-2.65811 -0.282534,-1.05404 -0.282534,-2.01481 0,-3.06895 0.282823,-1.05436 0.762865,-1.88537 1.534373,-2.65698 z"
       style="fill:#ffffff;fill-opacity:1;fill-rule:evenodd;stroke:none;stroke-width:0.0263484"
       id="path5561"
       inkscape:connector-curvature="0" /><path
       d="m 43.273445,145.5914 c 0.735384,-0.73538 1.528208,-1.19361 2.533347,-1.46223 1.004849,-0.26957 1.921168,-0.26957 2.925701,-5.3e-4 1.00506,0.26865 1.798384,0.72727 2.53419,1.46318 0.735384,0.73539 1.192582,1.52832 1.461731,2.53275 0.269123,1.00556 0.269123,1.92085 7.9e-5,2.9263 -0.269228,1.00454 -0.726847,1.79789 -1.462231,2.53327 -0.735885,0.73578 -1.528709,1.19401 -2.533769,1.46263 -1.004533,0.26915 -1.920852,0.26915 -2.925806,-4e-4 -1.005034,-0.26865 -1.797357,-0.72645 -2.532847,-1.46183 -0.735779,-0.73589 -1.194426,-1.52913 -1.462942,-2.53406 -0.269255,-1.00464 -0.269255,-1.92088 0,-2.92541 0.268516,-1.00493 0.726741,-1.79786 1.462547,-2.53367 z"
       style="fill:#154889;fill-opacity:1;fill-rule:evenodd;stroke:none;stroke-width:0.0263484"
       id="path5563"
       inkscape:connector-curvature="0" /><path
       d="m 42.312018,149.78625 h 9.915144 v 0.19751 h -9.915144 z"
       style="fill:#ffffff;fill-opacity:1;fill-rule:nonzero;stroke:none;stroke-width:0.0263484"
       id="path5565"
       inkscape:connector-curvature="0" /><path
       d="m 48.489798,146.81732 c 0,-0.18434 -0.149343,-0.33368 -0.333676,-0.33368 -0.184334,0 -0.333677,0.14934 -0.333677,0.33368 0,0.18433 0.149343,0.33367 0.333677,0.33367 0.184333,0 0.333676,-0.14934 0.333676,-0.33367 z m -1.620612,-1.95421 c 0,0.21068 -0.170869,0.38123 -0.38134,0.38123 -0.210392,0 -0.381341,-0.17055 -0.381341,-0.38123 0,-0.21047 0.170949,-0.38132 0.381341,-0.38132 0.210471,0 0.38134,0.17085 0.38134,0.38132 z m -0.762681,1.94496 0.0669,-0.0657 c 0.01834,-0.018 0.02851,-0.0425 0.02851,-0.068 v -0.71492 c 0,-0.0263 -0.02129,-0.0478 -0.04764,-0.0478 -0.02635,0 -0.04777,0.0214 -0.04777,0.0478 z m -0.571945,1.1056 c 0.05486,-0.36519 0.213159,-0.70687 0.456565,-0.98448 -0.109714,-0.12236 -0.170526,-0.28098 -0.170526,-0.44555 v -0.38131 c 0,-0.36838 0.29887,-0.66728 0.667247,-0.66728 0.24886,0 0.476932,0.13854 0.592128,0.3591 l 0.395937,0.76113 c 0.05733,0.11003 0.03715,0.24496 -0.05033,0.33307 l 0.39325,0.33067 c 0.133402,0.11191 0.313941,0.15048 0.48149,0.10253 l 0.0704,-0.0201 c 0.07285,-0.021 0.151398,0.003 0.199353,0.0621 l 0.485074,0.58934 c 0.08244,0.10015 0.06948,0.24794 -0.02911,0.33223 l -0.440915,-0.51451 0.142941,0.71502 -0.182463,0.0269 0.109398,0.6931 c 0.01038,0.065 -0.03396,0.12618 -0.09902,0.13638 -0.0635,0.01 -0.123205,-0.032 -0.135457,-0.095 l -0.135536,-0.69575 -0.154376,0.0227 -0.0704,0.75659 c -0.006,0.0658 -0.06413,0.11393 -0.129476,0.10766 -0.06382,-0.006 -0.111901,-0.0614 -0.107975,-0.12558 l 0.09499,-1.63739 -0.678656,-0.64185 c -0.06321,-0.0885 -0.05847,-0.2086 0.01141,-0.29199 l -0.422707,-0.81185 c -0.0068,-0.0141 -0.02458,-0.0194 -0.03871,-0.0122 -0.0092,0.005 -0.01523,0.0146 -0.01523,0.0254 v 0.73148 c 0,0.0255 0.0102,0.05 0.0284,0.068 l 0.0846,0.0834 c 0.297974,0.29291 0.492188,0.67486 0.554265,1.0879 z m 1.000924,0.0953 h 0.286038 v 1.28696 c 0,0.0788 -0.06382,0.14294 -0.142966,0.14294 -0.07883,0 -0.143072,-0.0641 -0.143072,-0.14294 z m -0.381315,0 h 0.286012 v 1.00092 c 0,0.0788 -0.06382,0.14307 -0.142966,0.14307 -0.07883,0 -0.143046,-0.0642 -0.143046,-0.14307"
       style="fill:#ffffff;fill-opacity:1;fill-rule:nonzero;stroke:none;stroke-width:0.0263484"
       id="path5567"
       inkscape:connector-curvature="0" /><path
       d="m 49.360323,153.83187 c -0.484442,0.14389 -0.993704,-0.13227 -1.137909,-0.61661 -0.0034,-0.0108 -0.006,-0.0213 -0.0085,-0.0321 h 0.943089 c 0.06329,0 0.114247,-0.0511 0.114247,-0.11414 0,-0.0161 -0.0034,-0.0321 -0.0099,-0.0467 l -0.422101,-0.94493 c 0.484468,-0.14389 0.993835,0.13216 1.137724,0.61663 0.143889,0.48444 -0.132269,0.99381 -0.616737,1.13801 z m -0.730536,-1.66264 0.351066,0.78521 h -0.795906 c 0,-0.32174 0.168682,-0.62 0.44484,-0.78521 z m -0.67394,0.78521 h -0.228704 l 0.571945,-1.52531 0.23682,0.53005 c -0.35847,0.20296 -0.580061,0.58336 -0.580061,0.99526 z m -0.468527,-0.0124 -1.432379,-1.58912 h 2.028327 z m -1.214372,0.3903 c -0.208627,0.46018 -0.75093,0.66438 -1.211421,0.45564 -0.460175,-0.20894 -0.66427,-0.75092 -0.455643,-1.21131 0.172609,-0.38081 0.580904,-0.59603 0.992492,-0.52346 l -0.268227,0.86723 c -0.01863,0.0606 0.01494,0.12444 0.07515,0.14339 0.06063,0.0185 0.124733,-0.0151 0.143362,-0.0756 l 0.268226,-0.86763 c 0.460492,0.20902 0.664692,0.75122 0.45596,1.21171 z m 3.914478,-0.73262 c -0.195769,-0.60045 -0.841489,-0.92878 -1.442259,-0.73301 l -0.331516,-0.7425 0.08574,-0.22899 h 0.257187 v -0.22849 h -0.972204 c -0.02635,0 -0.04972,0.018 -0.05567,0.0437 -0.0076,0.0307 0.01172,0.0615 0.04218,0.069 l 0.483835,0.11569 -0.08542,0.229 h -2.04353 l 0.09169,-0.29642 c 0.02964,-0.0959 0.118357,-0.16096 0.218508,-0.16096 h 0.375992 v -0.22881 h -0.375992 c -0.200485,0 -0.377731,0.13042 -0.437015,0.32205 l -0.332227,1.0732 c -0.533239,-0.10798 -1.068665,0.17445 -1.280875,0.67536 -0.2462,0.58183 0.02572,1.25311 0.607647,1.4992 0.581825,0.24638 1.252998,-0.0257 1.499171,-0.60736 0.246411,-0.58182 -0.02572,-1.2531 -0.60733,-1.49917 l 0.09077,-0.29407 1.352306,1.50033 c 0.04345,0.0483 0.104998,0.0755 0.169736,0.0755 h 0.480859 c 0.0086,0.0426 0.01976,0.0846 0.03323,0.12597 0.195769,0.60077 0.841515,0.92899 1.442286,0.73293 0.600454,-0.19576 0.928676,-0.84151 0.732907,-1.44228"
       style="fill:#ffffff;fill-opacity:1;fill-rule:nonzero;stroke:none;stroke-width:0.0263484"
       id="path5569"
       inkscape:connector-curvature="0" /></g></svg>
