<?xml version="1.0" encoding="UTF-8" standalone="no"?>
<!-- Created with Inkscape (http://www.inkscape.org/) -->

<svg
   width="162.75555mm"
   height="125.75679mm"
   viewBox="0 0 162.75555 125.75679"
   version="1.1"
   id="svg5"
   xml:space="preserve"
   xmlns="http://www.w3.org/2000/svg"
   xmlns:svg="http://www.w3.org/2000/svg"><defs
     id="defs2" /><g
     id="layer1"
     transform="translate(-24.383006,-37.336108)"><path
       style="opacity:1;fill:none;fill-opacity:1;stroke:#a9a9a9;stroke-width:0.93;stroke-linecap:round;stroke-miterlimit:4;stroke-dasharray:none;stroke-opacity:1"
       d="M 96.271231,44.425197 90.724945,55.108835 99.4429,62.297519"
       id="path15556" /><path
       id="rect24753"
       style="opacity:1;fill:#dbdbdb;stroke-width:0.765"
       d="m 140.17579,67.31416 20.80684,-12.222159 13.09615,15.468702 -14.25671,19.145202 z" /><path
       id="rect24753-93"
       style="fill:#dbdbdb;stroke-width:0.765"
       d="m 87.006237,61.698076 3.09479,-5.634567 4.081413,3.279354 -2.999327,5.206366 z" /><path
       id="rect24753-9"
       style="fill:#8ed792;fill-opacity:1;stroke-width:0.765"
       d="M 103.22091,104.63016 113.481,115.19123 112.03332,128.17632 93.840598,153.7519 56.927299,136.72744 76.051477,99.173579" /><path
       id="rect231"
       style="fill:#b0caff;fill-opacity:1;stroke-width:0.264583"
       d="m 24.932909,38.947124 h 25.87063 l 10.271106,0.117263 c 0,0 15.35895,12.671873 16.715804,19.500142 1.356853,6.828268 -3.383913,14.299904 -5.537697,15.202322 -2.153783,0.902418 -31.047064,-2.667519 -39.050339,-3.05175 -8.003275,-0.384231 -8.316497,1.240817 -8.316497,1.240817 l 0.04699,-13.761113 z" /><path
       id="rect1131"
       style="fill:#b0caff;stroke-width:0.264583"
       d="m 85.768969,112.68337 c 4.713158,-4.7972 14.040758,-8.78935 20.285291,-2.54482 6.24453,6.24453 6.98976,12.02677 0.74523,18.2713 -6.24453,6.24453 -11.513129,5.46035 -17.757661,-0.78418 -6.244533,-6.24453 -7.986018,-10.1451 -3.27286,-14.9423 z" /><path
       id="rect1134"
       style="fill:#b0caff;stroke-width:0.280187"
       d="m 86.925594,137.6838 2.956348,-3.34099 6.975096,5.43863 -2.869204,3.24256 z" /><path
       style="fill:#b0caff;fill-opacity:1;stroke:#ebb467;stroke-width:0.765;stroke-dasharray:none;stroke-opacity:1"
       d="M 43.344623,160.92566 105.4038,39.054267"
       id="path2652" /><rect
       style="opacity:1;fill:#f5de42;fill-opacity:1;stroke:none;stroke-width:0.91039;stroke-dasharray:none;stroke-opacity:1"
       id="rect5763"
       width="3.2892196"
       height="5.8283448"
       x="-10.28475"
       y="133.58711"
       transform="rotate(-58.918658)" /><path
       id="rect5763-36"
       style="fill:#8ed792;fill-opacity:1;stroke-width:0.91039"
       transform="rotate(-58.918658)"
       d="m 2.9084099,107.12543 6.699427,-0.44605 0.086419,3.77965 -6.7984392,0.62556 z" /><path
       id="rect5763-3"
       style="fill:#f5de42;stroke-width:0.91039"
       transform="rotate(-58.918658)"
       d="m -15.609409,100.02141 3.647567,-1.497032 1.78578,-1.353352 5.7141004,1.873081 3.57334597,6.139143 -20.58422537,1.45411 -2.601992,-1.83817 3.863567,-3.84959 z" /><path
       style="opacity:1;fill:#ffeb3b;fill-opacity:1;stroke:#a9a9a9;stroke-width:2.62998;stroke-dasharray:none;stroke-opacity:1"
       d="M 186.07446,57.121811 109.69619,162.32032"
       id="path10225" /><rect
       style="fill:#75757e;fill-opacity:1;stroke:none;stroke-width:0.0994701;stroke-dasharray:none;stroke-opacity:1"
       id="rect7801"
       width="5.1557546"
       height="13.780114"
       x="160.68791"
       y="77.127884"
       rx="1.0521148"
       ry="1.0521148" /><circle
       style="fill:#f44336;fill-opacity:1;stroke:none;stroke-width:0.0994701;stroke-dasharray:none;stroke-opacity:1"
       id="path8269"
       cx="163.26579"
       cy="79.603615"
       r="1.7142956" /><circle
       style="fill:#ffeb3b;fill-opacity:1;stroke:none;stroke-width:0.0994701;stroke-dasharray:none;stroke-opacity:1"
       id="circle9256"
       cx="163.26579"
       cy="84.017937"
       r="1.7142956" /><circle
       style="fill:#4caf50;fill-opacity:1;stroke:none;stroke-width:0.0994701;stroke-dasharray:none;stroke-opacity:1"
       id="circle9258"
       cx="163.26579"
       cy="88.432266"
       r="1.7142956" /><rect
       style="fill:#75757e;fill-opacity:1;stroke:none;stroke-width:0.0994701;stroke-dasharray:none;stroke-opacity:1"
       id="rect7801-8"
       width="5.1557546"
       height="13.780114"
       x="119.15693"
       y="135.589"
       rx="1.0521148"
       ry="1.0521148" /><circle
       style="fill:#f44336;fill-opacity:1;stroke:none;stroke-width:0.0994701;stroke-dasharray:none;stroke-opacity:1"
       id="path8269-6"
       cx="121.73481"
       cy="138.06474"
       r="1.7142956" /><circle
       style="fill:#ffeb3b;fill-opacity:1;stroke:none;stroke-width:0.0994701;stroke-dasharray:none;stroke-opacity:1"
       id="circle9256-1"
       cx="121.73481"
       cy="142.47906"
       r="1.7142956" /><circle
       style="fill:#4caf50;fill-opacity:1;stroke:none;stroke-width:0.0994701;stroke-dasharray:none;stroke-opacity:1"
       id="circle9258-2"
       cx="121.73481"
       cy="146.8934"
       r="1.7142956" /><path
       style="opacity:1;fill:none;fill-opacity:1;stroke:#a9a9a9;stroke-width:1.665;stroke-dasharray:none;stroke-opacity:1"
       d="M 185.35175,121.31981 138.25774,67.46042 86.107872,38.061309"
       id="path14793" /><path
       style="opacity:1;fill:#ffffff;fill-opacity:1;stroke:none;stroke-width:1.665;stroke-dasharray:none;stroke-opacity:1"
       d="m 108.53825,38.811596 -1.0661,8.509805"
       id="path17938" /><path
       style="opacity:1;fill:none;fill-opacity:1;stroke:#a9a9a9;stroke-width:1.265;stroke-dasharray:none;stroke-opacity:1"
       d="m 108.50864,38.883296 -1.12578,8.442394 -13.868792,24.922154 -2.152275,1.78417 -4.647866,9.18882 -2.570607,1.36452 -3.074279,0.309729 -7.386174,7.604114 -10.470025,17.345003 -1.959766,1.62432 -2.510663,-0.0513 -34.11908,-14.01514"
       id="path18003" /><path
       style="opacity:1;fill:none;fill-opacity:1;stroke:#a9a9a9;stroke-width:1.265;stroke-dasharray:none;stroke-opacity:1"
       d="m 118.63358,148.84948 -10.78757,-7.60577"
       id="path18669" /><path
       style="opacity:1;fill:none;fill-opacity:1;stroke:#ebb467;stroke-width:0.765;stroke-dasharray:none;stroke-opacity:1"
       d="m 91.11136,66.894344 7.637145,1.282081 2.067705,0.471506 15.4169,8.383796 1.06613,1.052508 0.37183,1.232884 -1.83244,3.586715 -1.66163,3.072903 -0.225,9.315331 -1.01136,4.701828 -1.67772,5.074854 0.5845,2.23264 2.27941,2.50378 1.04813,5.20387 0.0284,5.21136 -0.26424,4.68542 -0.92249,5.85282 -6.1767,10.1692"
       id="path19292" /><path
       style="opacity:1;fill:none;fill-opacity:1;stroke:#ebb467;stroke-width:0.765;stroke-dasharray:none;stroke-opacity:1"
       d="m 67.970584,113.28914 3.33579,1.58124"
       id="path20674" /><text
       xml:space="preserve"
       style="font-style:normal;font-variant:normal;font-weight:bold;font-stretch:normal;font-size:3.175px;font-family:sans-serif;-inkscape-font-specification:'sans-serif Bold';opacity:1;fill:#000000;fill-opacity:1;stroke:none;stroke-width:0.765;stroke-dasharray:none;stroke-opacity:1"
       x="72.129509"
       y="105.57526"
       id="text21456"><tspan
         style="fill:#000000;fill-opacity:1;stroke:none;stroke-width:0.765;stroke-opacity:1"
         x="72.129509"
         y="105.57526"
         id="tspan24015" /><tspan
         style="fill:#000000;fill-opacity:1;stroke:none;stroke-width:0.765;stroke-opacity:1"
         x="72.129509"
         y="109.54401"
         id="tspan24021">Fußgänger-</tspan><tspan
         style="fill:#000000;fill-opacity:1;stroke:none;stroke-width:0.765;stroke-opacity:1"
         x="72.129509"
         y="113.51276"
         id="tspan24025">zugang</tspan><tspan
         style="fill:#000000;fill-opacity:1;stroke:none;stroke-width:0.765;stroke-opacity:1"
         x="72.129509"
         y="117.48151"
         id="tspan22396">Freibad</tspan></text><text
       xml:space="preserve"
       style="font-style:normal;font-variant:normal;font-weight:bold;font-stretch:normal;font-size:3.175px;font-family:sans-serif;-inkscape-font-specification:'sans-serif Bold';fill:#000000;fill-opacity:1;stroke:none;stroke-width:0.765;stroke-dasharray:none;stroke-opacity:1"
       x="63.024189"
       y="132.22688"
       id="text21456-7"><tspan
         style="fill:#000000;fill-opacity:1;stroke:none;stroke-width:0.765;stroke-opacity:1"
         x="63.024189"
         y="132.22688"
         id="tspan22396-18">Zeltplätze</tspan></text><text
       xml:space="preserve"
       style="font-style:normal;font-variant:normal;font-weight:bold;font-stretch:normal;font-size:3.175px;font-family:sans-serif;-inkscape-font-specification:'sans-serif Bold';fill:#000000;fill-opacity:1;stroke:none;stroke-width:0.765;stroke-dasharray:none;stroke-opacity:1"
       x="95.310966"
       y="81.993973"
       id="text21456-47"><tspan
         style="fill:#000000;fill-opacity:1;stroke:none;stroke-width:0.765;stroke-opacity:1"
         x="95.310966"
         y="81.993973"
         id="tspan22396-1">Beachflags</tspan></text><text
       xml:space="preserve"
       style="font-style:normal;font-variant:normal;font-weight:bold;font-stretch:normal;font-size:3.175px;font-family:sans-serif;-inkscape-font-specification:'sans-serif Bold';fill:#000000;fill-opacity:1;stroke:none;stroke-width:0.765;stroke-dasharray:none;stroke-opacity:1"
       x="84.395355"
       y="45.436314"
       id="text21456-47-0"><tspan
         style="fill:#000000;fill-opacity:1;stroke:none;stroke-width:0.765;stroke-opacity:1"
         x="84.395355"
         y="45.436314"
         id="tspan22396-1-9">Material-</tspan><tspan
         style="fill:#000000;fill-opacity:1;stroke:none;stroke-width:0.765;stroke-opacity:1"
         x="84.395355"
         y="49.405064"
         id="tspan10291">lager</tspan></text><text
       xml:space="preserve"
       style="font-style:normal;font-variant:normal;font-weight:bold;font-stretch:normal;font-size:3.175px;font-family:sans-serif;-inkscape-font-specification:'sans-serif Bold';fill:#6b6b6b;fill-opacity:1;stroke:none;stroke-width:0.765;stroke-dasharray:none;stroke-opacity:1"
       x="145.96565"
       y="67.837906"
       id="text21456-4-4"><tspan
         style="fill:#6b6b6b;fill-opacity:1;stroke:none;stroke-width:0.765;stroke-opacity:1"
         x="145.96565"
         y="67.837906"
         id="tspan22396-6-7">Molkerei</tspan><tspan
         style="fill:#6b6b6b;fill-opacity:1;stroke:none;stroke-width:0.765;stroke-opacity:1"
         x="145.96565"
         y="71.806656"
         id="tspan27526">Naarmann</tspan></text><path
       style="opacity:1;fill:none;fill-opacity:0.952941;stroke:#a9a9a9;stroke-width:1.165;stroke-dasharray:none;stroke-opacity:1"
       d="m 98.798556,62.41484 19.741534,9.68734"
       id="path29994" /><rect
       style="fill:#27428e;fill-opacity:1;stroke:#ffffff;stroke-width:0.389679;stroke-dasharray:none;stroke-opacity:1"
       id="rect15636"
       width="7.5636921"
       height="7.5636921"
       x="104.40157"
       y="60.319389"
       rx="1.8937572"
       ry="1.8937572" /><text
       xml:space="preserve"
       style="font-size:7.70134px;fill:#ffffff;fill-opacity:1;stroke:none;stroke-width:4.03866;stroke-dasharray:none;stroke-opacity:1"
       x="114.32069"
       y="62.040791"
       id="text17144"
       transform="scale(0.92406385,1.0821763)"><tspan
         id="tspan17142"
         style="font-style:normal;font-variant:normal;font-weight:bold;font-stretch:normal;font-family:sans-serif;-inkscape-font-specification:'sans-serif Bold';fill:#ffffff;fill-opacity:1;stroke:none;stroke-width:4.03866"
         x="114.32069"
         y="62.040791">P</tspan></text><path
       d="m 49.631143,146.54763 c 0.418985,0.41897 0.679883,0.87072 0.833268,1.44313 0.153441,0.57298 0.153441,1.09472 0,1.66763 -0.153342,0.57249 -0.414455,1.02445 -0.833768,1.44371 -0.41897,0.41902 -0.870763,0.67992 -1.44346,0.83359 -0.572654,0.1531 -1.094666,0.15333 -1.667305,-2.8e-4 -0.572483,-0.15345 -1.024219,-0.41429 -1.443246,-0.83331 -0.419256,-0.41926 -0.680369,-0.87122 -0.833982,-1.44392 -0.153455,-0.57248 -0.153455,-1.09472 0,-1.66714 0.153613,-0.57264 0.414455,-1.02444 0.833539,-1.44341 0.419199,-0.41926 0.871206,-0.68043 1.443631,-0.83387 0.572697,-0.15361 1.094709,-0.1534 1.667421,-2.3e-4 0.572639,0.15367 1.024604,0.41478 1.443902,0.8341 z m -0.0038,0.004 c -0.418699,-0.4187 -0.869606,-0.6792 -1.441517,-0.83265 -0.571925,-0.153 -1.092765,-0.15321 -1.664619,2.3e-4 -0.571697,0.15322 -1.022604,0.41372 -1.441302,0.83242 -0.418413,0.41847 -0.678755,0.86915 -0.832196,1.44102 -0.15317,0.57164 -0.15317,1.09269 5.7e-5,1.66433 0.153442,0.57193 0.414012,1.02288 0.83271,1.44158 0.418413,0.41841 0.869148,0.67869 1.440731,0.83192 0.571911,0.15344 1.092694,0.15317 1.664619,2.7e-4 0.571911,-0.15344 1.02259,-0.41373 1.441074,-0.83214 0.418684,-0.4187 0.679197,-0.86965 0.832367,-1.44134 0.153212,-0.57214 0.153212,-1.09271 0,-1.66485 -0.153113,-0.57164 -0.413512,-1.02238 -0.831924,-1.44079 z"
       style="fill:#000000;fill-opacity:1;fill-rule:evenodd;stroke:none;stroke-width:0.0142896"
       id="path5559" /><path
       d="m 45.079919,146.55137 c 0.418698,-0.4187 0.869605,-0.6792 1.441302,-0.83242 0.571854,-0.15344 1.092694,-0.15323 1.664619,-2.3e-4 0.571911,0.15345 1.022818,0.41395 1.441517,0.83265 0.418469,0.41841 0.678811,0.86915 0.831924,1.44079 0.153212,0.57214 0.153212,1.09276 4.2e-5,1.6649 -0.153212,0.57164 -0.413725,1.02259 -0.832409,1.44129 -0.418484,0.41841 -0.869163,0.6787 -1.441017,0.83214 -0.571925,0.15294 -1.092765,0.15317 -1.664676,-2.7e-4 -0.571583,-0.15323 -1.022261,-0.41346 -1.440731,-0.83192 -0.418698,-0.4187 -0.679211,-0.86965 -0.83271,-1.44158 -0.153227,-0.57164 -0.153227,-1.09269 0,-1.66439 0.153384,-0.57181 0.413726,-1.02249 0.832139,-1.44096 z"
       style="fill:#ffffff;fill-opacity:1;fill-rule:evenodd;stroke:none;stroke-width:0.0142896"
       id="path5561" /><path
       d="m 45.186319,146.65726 c 0.398821,-0.39882 0.828794,-0.64733 1.373912,-0.79302 0.544961,-0.14619 1.041909,-0.14619 1.586699,-2.8e-4 0.545075,0.14569 0.975319,0.39442 1.37437,0.79353 0.398821,0.39882 0.646774,0.82885 0.792742,1.37358 0.145953,0.54535 0.145953,1.04174 4.2e-5,1.58703 -0.14601,0.54479 -0.394191,0.97504 -0.793013,1.37387 -0.399093,0.39903 -0.829066,0.64754 -1.374141,0.79322 -0.54479,0.14597 -1.041738,0.14597 -1.586756,-2.1e-4 -0.545061,-0.1457 -0.974762,-0.39398 -1.373641,-0.7928 -0.399036,-0.39909 -0.647774,-0.82929 -0.793399,-1.3743 -0.146025,-0.54484 -0.146025,-1.04175 0,-1.58654 0.145625,-0.545 0.394134,-0.97503 0.793185,-1.37408 z"
       style="fill:#154889;fill-opacity:1;fill-rule:evenodd;stroke:none;stroke-width:0.0142896"
       id="path5563" /><path
       d="m 44.664907,148.93226 h 5.37729 v 0.10711 h -5.37729 z"
       style="fill:#ffffff;fill-opacity:1;fill-rule:nonzero;stroke:none;stroke-width:0.0142896"
       id="path5565" /><path
       d="m 48.015309,147.32211 c 0,-0.1 -0.08099,-0.18097 -0.180963,-0.18097 -0.09997,0 -0.180963,0.081 -0.180963,0.18097 0,0.1 0.08099,0.18096 0.180963,0.18096 0.09997,0 0.180963,-0.081 0.180963,-0.18096 z m -0.878908,-1.05983 c 0,0.11426 -0.09267,0.20675 -0.206813,0.20675 -0.114102,0 -0.206813,-0.0925 -0.206813,-0.20675 0,-0.11415 0.09271,-0.2068 0.206813,-0.2068 0.114145,0 0.206813,0.0927 0.206813,0.2068 z m -0.413626,1.05481 0.03628,-0.0356 c 0.0099,-0.01 0.01546,-0.0231 0.01546,-0.0369 v -0.38772 c 0,-0.0143 -0.01155,-0.0259 -0.02584,-0.0259 -0.01429,0 -0.02591,0.0116 -0.02591,0.0259 z m -0.310183,0.59961 c 0.02975,-0.19806 0.115602,-0.38336 0.247609,-0.53392 -0.0595,-0.0664 -0.09248,-0.15238 -0.09248,-0.24164 v -0.20679 c 0,-0.19979 0.162086,-0.36189 0.361869,-0.36189 0.134965,0 0.258655,0.0751 0.321129,0.19476 l 0.214729,0.41278 c 0.03109,0.0597 0.02015,0.13285 -0.02729,0.18063 l 0.213272,0.17934 c 0.07235,0.0607 0.17026,0.0816 0.261127,0.0556 l 0.03818,-0.0109 c 0.03951,-0.0114 0.08211,0.002 0.108115,0.0337 l 0.263071,0.31962 c 0.04471,0.0543 0.03768,0.13446 -0.01579,0.18018 l -0.239122,-0.27904 0.07752,0.38778 -0.09895,0.0146 0.05933,0.37588 c 0.0056,0.0352 -0.01842,0.0684 -0.0537,0.074 -0.03444,0.005 -0.06682,-0.0174 -0.07346,-0.0515 l -0.07351,-0.37733 -0.08372,0.0123 -0.03818,0.41033 c -0.0032,0.0357 -0.03478,0.0618 -0.07022,0.0584 -0.03461,-0.003 -0.06069,-0.0333 -0.05856,-0.0681 l 0.05151,-0.88801 -0.368056,-0.3481 c -0.03428,-0.048 -0.03171,-0.11313 0.0062,-0.15835 l -0.229247,-0.44029 c -0.0037,-0.008 -0.01333,-0.0105 -0.02099,-0.007 -0.005,0.003 -0.0083,0.008 -0.0083,0.0138 v 0.39671 c 0,0.0138 0.0055,0.0271 0.0154,0.0369 l 0.04588,0.0452 c 0.161601,0.15885 0.266929,0.366 0.300595,0.59 z m 0.542831,0.0517 h 0.155128 v 0.69796 c 0,0.0428 -0.03461,0.0775 -0.07753,0.0775 -0.04276,0 -0.07759,-0.0348 -0.07759,-0.0775 z m -0.206798,0 h 0.155113 v 0.54283 c 0,0.0428 -0.03461,0.0776 -0.07753,0.0776 -0.04275,0 -0.07758,-0.0348 -0.07758,-0.0776"
       style="fill:#ffffff;fill-opacity:1;fill-rule:nonzero;stroke:none;stroke-width:0.0142896"
       id="path5567" /><path
       d="m 48.487421,151.12632 c -0.262727,0.078 -0.538916,-0.0717 -0.617123,-0.33441 -0.0018,-0.006 -0.0032,-0.0116 -0.0046,-0.0174 h 0.511467 c 0.03432,0 0.06196,-0.0277 0.06196,-0.0619 0,-0.009 -0.0018,-0.0174 -0.0054,-0.0254 l -0.228918,-0.51246 c 0.262742,-0.078 0.538988,0.0717 0.617023,0.33441 0.07803,0.26273 -0.07173,0.53898 -0.334476,0.61718 z m -0.396192,-0.9017 0.190394,0.42584 h -0.431645 c 0,-0.17449 0.09148,-0.33625 0.241251,-0.42584 z m -0.365498,0.42584 h -0.124034 l 0.310184,-0.82722 0.128434,0.28746 c -0.194409,0.11007 -0.314584,0.31637 -0.314584,0.53976 z m -0.254097,-0.007 -0.776824,-0.86183 h 1.100025 z m -0.658592,0.21167 c -0.113145,0.24957 -0.407252,0.36031 -0.656991,0.24711 -0.249567,-0.11332 -0.360254,-0.40725 -0.247109,-0.65693 0.09361,-0.20653 0.315042,-0.32325 0.538259,-0.2839 l -0.145468,0.47033 c -0.0101,0.0329 0.0081,0.0675 0.04075,0.0778 0.03288,0.0101 0.06765,-0.008 0.07775,-0.041 l 0.145468,-0.47054 c 0.249739,0.11336 0.360483,0.40741 0.247281,0.65715 z m 2.122943,-0.39732 c -0.106171,-0.32565 -0.456366,-0.50371 -0.782182,-0.39754 l -0.179791,-0.40268 0.0465,-0.12419 h 0.13948 v -0.12392 h -0.527256 c -0.01429,0 -0.02696,0.01 -0.03019,0.0237 -0.0041,0.0166 0.0064,0.0333 0.02288,0.0374 l 0.262399,0.0627 -0.04633,0.12419 h -1.108269 l 0.04973,-0.16076 c 0.01608,-0.052 0.06419,-0.0873 0.118504,-0.0873 h 0.203912 v -0.12409 H 46.90146 c -0.10873,0 -0.204855,0.0707 -0.237007,0.17466 l -0.180177,0.58203 c -0.289192,-0.0586 -0.57957,0.0946 -0.694658,0.36627 -0.133522,0.31554 0.01395,0.6796 0.329545,0.81306 0.315542,0.13363 0.67954,-0.014 0.813048,-0.32938 0.133636,-0.31555 -0.01395,-0.6796 -0.329375,-0.81305 l 0.04923,-0.15949 0.733397,0.81368 c 0.02356,0.0262 0.05694,0.041 0.09205,0.041 h 0.260784 c 0.0047,0.0231 0.01072,0.0459 0.01802,0.0683 0.106172,0.32582 0.45638,0.50383 0.782197,0.3975 0.325644,-0.10617 0.503649,-0.45638 0.397478,-0.7822"
       style="fill:#ffffff;fill-opacity:1;fill-rule:nonzero;stroke:none;stroke-width:0.0142896"
       id="path5569" /><path
       d="m 117.42515,95.221778 c 0.41898,0.418969 0.67988,0.87072 0.83326,1.443131 0.15344,0.572983 0.15344,1.094723 0,1.667634 -0.15334,0.572483 -0.41445,1.024447 -0.83376,1.443703 -0.41897,0.419024 -0.87077,0.679924 -1.44346,0.833594 -0.57266,0.1531 -1.09467,0.15333 -1.66731,-2.8e-4 -0.57248,-0.15345 -1.02422,-0.41429 -1.44325,-0.833314 -0.41925,-0.419256 -0.68036,-0.87122 -0.83398,-1.443917 -0.15345,-0.572483 -0.15345,-1.094723 0,-1.667134 0.15362,-0.57264 0.41446,-1.024448 0.83354,-1.443417 0.4192,-0.419256 0.87121,-0.680426 1.44363,-0.833868 0.5727,-0.153612 1.09471,-0.153398 1.66742,-2.28e-4 0.57264,0.15367 1.02461,0.414783 1.44391,0.834096 z m -0.004,0.0037 c -0.4187,-0.418698 -0.86961,-0.679197 -1.44152,-0.832652 -0.57192,-0.152999 -1.09276,-0.153213 -1.66462,2.28e-4 -0.57169,0.153227 -1.0226,0.413726 -1.4413,0.832424 -0.41841,0.41847 -0.67875,0.869149 -0.83219,1.441017 -0.15317,0.571639 -0.15317,1.092694 5e-5,1.664333 0.15344,0.571926 0.41401,1.022876 0.83271,1.441574 0.41841,0.418418 0.86915,0.678698 1.44073,0.831928 0.57191,0.15344 1.0927,0.15317 1.66462,2.7e-4 0.57191,-0.15344 1.02259,-0.41373 1.44108,-0.832141 0.41868,-0.418698 0.67919,-0.869648 0.83236,-1.441345 0.15322,-0.572139 0.15322,-1.092708 0,-1.664848 -0.15311,-0.571639 -0.41351,-1.022375 -0.83192,-1.440788 z"
       style="fill:#000000;fill-opacity:1;fill-rule:evenodd;stroke:none;stroke-width:0.0142896"
       id="path5559-7" /><path
       d="m 112.87392,95.225521 c 0.4187,-0.418698 0.86961,-0.679197 1.4413,-0.832424 0.57186,-0.153441 1.0927,-0.153227 1.66462,-2.28e-4 0.57191,0.153455 1.02282,0.413954 1.44152,0.832652 0.41847,0.418413 0.67881,0.869149 0.83192,1.440788 0.15322,0.57214 0.15322,1.092766 5e-5,1.664905 -0.15322,0.57164 -0.41373,1.02259 -0.83241,1.441288 -0.41849,0.418408 -0.86917,0.678698 -1.44102,0.832138 -0.57193,0.15294 -1.09277,0.15317 -1.66468,-2.7e-4 -0.57158,-0.15323 -1.02226,-0.41346 -1.44073,-0.831925 -0.4187,-0.418698 -0.67921,-0.869648 -0.83271,-1.441574 -0.15322,-0.571639 -0.15322,-1.092694 0,-1.66439 0.15339,-0.571811 0.41373,-1.02249 0.83214,-1.44096 z"
       style="fill:#ffffff;fill-opacity:1;fill-rule:evenodd;stroke:none;stroke-width:0.0142896"
       id="path5561-5" /><path
       d="m 112.98032,95.331407 c 0.39882,-0.398822 0.8288,-0.647331 1.37391,-0.793013 0.54496,-0.146197 1.04191,-0.146197 1.5867,-2.86e-4 0.54508,0.145696 0.97532,0.39442 1.37437,0.793528 0.39882,0.398821 0.64678,0.828851 0.79274,1.373584 0.14596,0.545346 0.14596,1.041737 5e-5,1.587027 -0.14601,0.544789 -0.3942,0.975048 -0.79302,1.37387 -0.39909,0.399033 -0.82906,0.647543 -1.37414,0.793223 -0.54479,0.14597 -1.04174,0.14597 -1.58675,-2.1e-4 -0.54506,-0.1457 -0.97477,-0.39398 -1.37364,-0.792799 -0.39904,-0.399093 -0.64778,-0.829295 -0.7934,-1.374299 -0.14603,-0.544846 -0.14603,-1.041751 0,-1.586541 0.14562,-0.545004 0.39413,-0.975034 0.79318,-1.374084 z"
       style="fill:#154889;fill-opacity:1;fill-rule:evenodd;stroke:none;stroke-width:0.0142896"
       id="path5563-3" /><path
       d="m 112.45891,97.606405 h 5.37729 v 0.107115 h -5.37729 z"
       style="fill:#ffffff;fill-opacity:1;fill-rule:nonzero;stroke:none;stroke-width:0.0142896"
       id="path5565-5" /><path
       d="m 115.80931,95.996257 c 0,-0.09997 -0.081,-0.180963 -0.18096,-0.180963 -0.1,0 -0.18097,0.08099 -0.18097,0.180963 0,0.09997 0.081,0.180963 0.18097,0.180963 0.1,0 0.18096,-0.08099 0.18096,-0.180963 z m -0.87891,-1.059828 c 0,0.11426 -0.0927,0.206756 -0.20681,0.206756 -0.1141,0 -0.20681,-0.0925 -0.20681,-0.206756 0,-0.114145 0.0927,-0.206798 0.20681,-0.206798 0.11414,0 0.20681,0.09265 0.20681,0.206798 z m -0.41362,1.054813 0.0363,-0.03561 c 0.01,-0.0098 0.0155,-0.02306 0.0155,-0.0369 v -0.387719 c 0,-0.01429 -0.0115,-0.02591 -0.0258,-0.02591 -0.0143,0 -0.0259,0.01162 -0.0259,0.02591 z m -0.31019,0.599604 c 0.0297,-0.198053 0.11561,-0.38336 0.24761,-0.533915 -0.0595,-0.06636 -0.0925,-0.152384 -0.0925,-0.241637 v -0.206798 c 0,-0.199782 0.16209,-0.361883 0.36187,-0.361883 0.13496,0 0.25866,0.07513 0.32113,0.194752 l 0.21473,0.412783 c 0.0311,0.05967 0.0202,0.13285 -0.0273,0.180634 l 0.21327,0.179334 c 0.0723,0.06069 0.17026,0.08161 0.26112,0.0556 l 0.0382,-0.01089 c 0.0395,-0.01139 0.0821,0.0018 0.10811,0.03367 l 0.26307,0.319615 c 0.0447,0.05432 0.0377,0.134465 -0.0158,0.180177 l -0.23912,-0.279032 0.0775,0.387776 -0.099,0.01462 0.0593,0.375887 c 0.006,0.03522 -0.0184,0.06843 -0.0537,0.07396 -0.0344,0.0054 -0.0668,-0.01736 -0.0735,-0.05153 l -0.0735,-0.37733 -0.0837,0.01233 -0.0382,0.410325 c -0.003,0.03567 -0.0348,0.06179 -0.0702,0.05839 -0.0346,-0.0032 -0.0607,-0.03332 -0.0586,-0.0681 l 0.0515,-0.888011 -0.36806,-0.348093 c -0.0343,-0.048 -0.0317,-0.113131 0.006,-0.158357 l -0.22925,-0.44029 c -0.004,-0.0076 -0.0133,-0.01055 -0.021,-0.0066 -0.005,0.0027 -0.008,0.0079 -0.008,0.01379 v 0.396706 c 0,0.01383 0.006,0.02712 0.0154,0.0369 l 0.0459,0.04521 c 0.1616,0.158857 0.26693,0.365999 0.3006,0.590002 z m 0.54284,0.05169 h 0.15512 v 0.69796 c 0,0.04275 -0.0346,0.07752 -0.0775,0.07752 -0.0428,0 -0.0776,-0.03477 -0.0776,-0.07752 z m -0.2068,0 h 0.15511 v 0.542832 c 0,0.04275 -0.0346,0.07759 -0.0775,0.07759 -0.0427,0 -0.0776,-0.03484 -0.0776,-0.07759"
       style="fill:#ffffff;fill-opacity:1;fill-rule:nonzero;stroke:none;stroke-width:0.0142896"
       id="path5567-6" /><path
       d="m 116.28142,99.800467 c -0.26272,0.07803 -0.53891,-0.07173 -0.61712,-0.334404 -0.002,-0.0059 -0.003,-0.01156 -0.005,-0.01742 h 0.51147 c 0.0343,0 0.062,-0.02774 0.062,-0.0619 0,-0.0088 -0.002,-0.01742 -0.005,-0.02535 l -0.22892,-0.512467 c 0.26274,-0.07803 0.53899,0.07168 0.61702,0.334419 0.078,0.262728 -0.0717,0.538973 -0.33447,0.61718 z m -0.39619,-0.9017 0.1904,0.425843 h -0.43165 c 0,-0.174489 0.0915,-0.336247 0.24125,-0.425843 z m -0.3655,0.425843 h -0.12403 l 0.31018,-0.827222 0.12844,0.287463 c -0.19441,0.110072 -0.31459,0.316371 -0.31459,0.539759 z m -0.25409,-0.0067 -0.77683,-0.861832 h 1.10003 z m -0.6586,0.211671 c -0.11314,0.249567 -0.40725,0.360311 -0.65699,0.247109 -0.24956,-0.113316 -0.36025,-0.407252 -0.24711,-0.656934 0.0936,-0.206527 0.31505,-0.323244 0.53826,-0.28389 l -0.14546,0.470326 c -0.0101,0.03288 0.008,0.06749 0.0407,0.07776 0.0329,0.01005 0.0677,-0.0082 0.0778,-0.04098 l 0.14547,-0.470541 c 0.24973,0.11336 0.36048,0.40741 0.24728,0.657149 z m 2.12295,-0.397321 c -0.10617,-0.325645 -0.45637,-0.503707 -0.78218,-0.397536 l -0.1798,-0.40268 0.0465,-0.12419 h 0.13948 v -0.123919 h -0.52725 c -0.0143,0 -0.027,0.0098 -0.0302,0.02372 -0.004,0.01663 0.006,0.03332 0.0229,0.0374 l 0.2624,0.06275 -0.0463,0.124191 h -1.10827 l 0.0497,-0.160758 c 0.0161,-0.05201 0.0642,-0.08729 0.1185,-0.08729 h 0.20392 v -0.124091 h -0.20392 c -0.10873,0 -0.20485,0.07073 -0.237,0.174661 l -0.18018,0.582028 c -0.28919,-0.05856 -0.57957,0.09461 -0.69466,0.36627 -0.13352,0.315542 0.014,0.679598 0.32955,0.813062 0.31554,0.133622 0.67954,-0.01396 0.81304,-0.329389 0.13364,-0.315542 -0.0139,-0.679597 -0.32937,-0.813047 l 0.0492,-0.159486 0.7334,0.813676 c 0.0236,0.02618 0.0569,0.04097 0.0921,0.04097 h 0.26078 c 0.005,0.02311 0.0107,0.04588 0.018,0.06832 0.10617,0.325816 0.45638,0.503828 0.7822,0.397493 0.32564,-0.106172 0.50365,-0.45638 0.39748,-0.782197"
       style="fill:#ffffff;fill-opacity:1;fill-rule:nonzero;stroke:none;stroke-width:0.0142896"
       id="path5569-2" /><circle
       style="opacity:1;fill:#cb0000;fill-opacity:1;stroke:#860000;stroke-width:0.33;stroke-linecap:round;stroke-miterlimit:4;stroke-dasharray:none;stroke-opacity:1"
       id="path9006"
       cx="86.655624"
       cy="70.587067"
       r="1.2622751" /><circle
       style="opacity:1;fill:#cb0000;fill-opacity:1;stroke:#860000;stroke-width:0.33;stroke-linecap:round;stroke-miterlimit:4;stroke-dasharray:none;stroke-opacity:1"
       id="path9006-7"
       cx="87.93795"
       cy="68.447052"
       r="1.2622751" /><circle
       style="opacity:1;fill:#cb0000;fill-opacity:1;stroke:#860000;stroke-width:0.33;stroke-linecap:round;stroke-miterlimit:4;stroke-dasharray:none;stroke-opacity:1"
       id="path9006-2"
       cx="89.316017"
       cy="66.35556"
       r="1.2622751" /><text
       xml:space="preserve"
       style="font-style:normal;font-variant:normal;font-weight:bold;font-stretch:normal;font-size:3.175px;font-family:sans-serif;-inkscape-font-specification:'sans-serif Bold';text-align:end;text-anchor:end;fill:#000000;fill-opacity:1;stroke:none;stroke-width:0.765;stroke-dasharray:none;stroke-opacity:1"
       x="87.419083"
       y="63.984867"
       id="text21456-3"><tspan
         style="text-align:end;text-anchor:end;fill:#000000;fill-opacity:1;stroke:none;stroke-width:0.765;stroke-opacity:1"
         x="87.419083"
         y="63.984867"
         id="tspan22396-2">Offlumer See</tspan><tspan
         style="text-align:end;text-anchor:end;fill:#000000;fill-opacity:1;stroke:none;stroke-width:0.765;stroke-opacity:1"
         x="87.419083"
         y="67.953613"
         id="tspan24013">Wettkampfstätte</tspan></text><rect
       style="fill:#f5f7ff;fill-opacity:1;stroke:#ec008a;stroke-width:0.467198;stroke-linecap:round;stroke-miterlimit:4;stroke-dasharray:none;stroke-opacity:1"
       id="rect19219-9"
       width="12.224807"
       height="3.3903141"
       x="108.23188"
       y="66.668312" /><text
       xml:space="preserve"
       style="font-style:normal;font-variant:normal;font-weight:bold;font-stretch:normal;font-size:2.79878px;font-family:sans-serif;-inkscape-font-specification:'sans-serif Bold';letter-spacing:-0.149992px;fill:#ec008a;fill-opacity:0.933333;stroke:none;stroke-width:0.8198;stroke-linecap:round;stroke-miterlimit:4;stroke-dasharray:none;stroke-opacity:1"
       x="108.69012"
       y="69.362633"
       id="text22229-7"><tspan
         id="tspan22227-3"
         style="font-style:normal;font-variant:normal;font-weight:bold;font-stretch:normal;font-family:sans-serif;-inkscape-font-specification:'sans-serif Bold';fill:#ec008a;fill-opacity:0.933333;stroke:none;stroke-width:0.8198"
         x="108.69012"
         y="69.362633">SHUTTLE</tspan></text><rect
       style="fill:#f5f7ff;fill-opacity:1;stroke:#ec008a;stroke-width:0.467198;stroke-linecap:round;stroke-miterlimit:4;stroke-dasharray:none;stroke-opacity:1"
       id="rect19219-6"
       width="12.224807"
       height="3.3903141"
       x="65.266563"
       y="122.96643" /><text
       xml:space="preserve"
       style="font-style:normal;font-variant:normal;font-weight:bold;font-stretch:normal;font-size:2.79878px;font-family:sans-serif;-inkscape-font-specification:'sans-serif Bold';letter-spacing:-0.149992px;fill:#ec008a;fill-opacity:0.933333;stroke:none;stroke-width:0.8198;stroke-linecap:round;stroke-miterlimit:4;stroke-dasharray:none;stroke-opacity:1"
       x="65.724808"
       y="125.66075"
       id="text22229-1"><tspan
         id="tspan22227-2"
         style="font-style:normal;font-variant:normal;font-weight:bold;font-stretch:normal;font-family:sans-serif;-inkscape-font-specification:'sans-serif Bold';fill:#ec008a;fill-opacity:0.933333;stroke:none;stroke-width:0.8198"
         x="65.724808"
         y="125.66075">SHUTTLE</tspan></text><rect
       style="fill:#f5f7ff;fill-opacity:1;stroke:#000000;stroke-width:0.467198;stroke-linecap:round;stroke-miterlimit:4;stroke-dasharray:none;stroke-opacity:1"
       id="rect19219-6-1-6"
       width="17.232334"
       height="3.3903122"
       x="87.432571"
       y="141.98618" /><text
       xml:space="preserve"
       style="font-style:normal;font-variant:normal;font-weight:bold;font-stretch:normal;font-size:2.79878px;font-family:sans-serif;-inkscape-font-specification:'sans-serif Bold';letter-spacing:-0.149992px;fill:#000000;fill-opacity:0.933333;stroke:none;stroke-width:0.8198;stroke-linecap:round;stroke-miterlimit:4;stroke-dasharray:none;stroke-opacity:1"
       x="87.890816"
       y="144.6805"
       id="text22229-1-9-3"><tspan
         id="tspan22227-2-4-2"
         style="font-style:normal;font-variant:normal;font-weight:bold;font-stretch:normal;font-family:sans-serif;-inkscape-font-specification:'sans-serif Bold';fill:#000000;fill-opacity:0.933333;stroke:none;stroke-width:0.8198"
         x="87.890816"
         y="144.6805">WC/Duschen</tspan></text><rect
       style="fill:#f5f7ff;fill-opacity:1;stroke:#000000;stroke-width:0.467198;stroke-linecap:round;stroke-miterlimit:4;stroke-dasharray:none;stroke-opacity:1"
       id="rect19219-6-1-8"
       width="5.2766933"
       height="3.3903122"
       x="95.911354"
       y="56.12598" /><text
       xml:space="preserve"
       style="font-style:normal;font-variant:normal;font-weight:bold;font-stretch:normal;font-size:2.79878px;font-family:sans-serif;-inkscape-font-specification:'sans-serif Bold';letter-spacing:-0.149992px;fill:#000000;fill-opacity:0.933333;stroke:none;stroke-width:0.8198;stroke-linecap:round;stroke-miterlimit:4;stroke-dasharray:none;stroke-opacity:1"
       x="96.369598"
       y="58.820301"
       id="text22229-1-9-4"><tspan
         id="tspan22227-2-4-5"
         style="font-style:normal;font-variant:normal;font-weight:bold;font-stretch:normal;font-family:sans-serif;-inkscape-font-specification:'sans-serif Bold';fill:#000000;fill-opacity:0.933333;stroke:none;stroke-width:0.8198"
         x="96.369598"
         y="58.820301">WC</tspan></text></g></svg>
